<svg id="SvgjsSvg1001" width="256" height="256" xmlns="http://www.w3.org/2000/svg" version="1.1">
  <defs id="SvgjsDefs1002"></defs>
  <g id="SvgjsG1008">
    <svg xmlns="http://www.w3.org/2000/svg" viewBox="0 0 44 44" width="256" height="256">
      <path fill="#a4af9b"
            d="M27 4H16c-.6 0-1 .4-1 1s.4 1 1 1h11c.6 0 1 .4 1 1s-.4 1-1 1h-3c-1.7 0-3 1.3-3 3v2c-.6 0-1 .4-1 1s.4 1 1 1h2c.6 0 1-.4 1-1s-.4-1-1-1v-2c0-.6.4-1 1-1h3c1.7 0 3-1.3 3-3s-1.3-3-3-3z"
            class="color9ba7af svgShape"></path>
      <path fill="#5c3735"
            d="m43.5 30.8-2.5-12c-.6-2.8-3-4.8-5.9-4.8H8.9C6 14 3.6 16 3 18.8l-2.5 12c-.3 1.4-.5 2.7-.5 4.1 0 2.3 1.4 4.5 3.7 5 2.4.5 4.6-.7 5.5-2.9 0 0 .9-2.1 1.5-3.7.3-.7 1.1-.8 1.6-.3.7.6 1.7 1 2.7 1 1.9 0 3.5-1.4 3.9-3.2.1-.5.5-.8 1-.8h4.2c.5 0 .9.4 1 .8.4 1.8 2 3.2 3.9 3.2 1 0 2-.4 2.7-1.1.5-.5 1.3-.3 1.6.3.6 1.6 1.5 3.7 1.5 3.7.9 2.1 3.1 3.4 5.5 2.9 2.3-.5 3.7-2.7 3.7-5 0-1.3-.2-2.6-.5-4z"
            class="color35495c svgShape"></path>
      <path fill="#471512"
            d="M32.3 31.3c-.3-.7-1.1-.8-1.6-.3-.7.6-1.7 1-2.7 1-1.2 0-2.2-.5-3-1.3 0 .1 0 .1.1.2.4 1.8 2 3.2 3.9 3.2 1 0 2-.4 2.7-1.1.4-.3.9-.3 1.2-.1-.2-.6-.4-1.1-.6-1.6zM24.1 28.8c-.1-.5-.5-.8-1-.8h-4.2c-.5 0-.9.4-1 .8-.4 1.8-2 3.2-3.9 3.2-1 0-2-.4-2.7-1.1-.5-.5-1.3-.3-1.6.3-.6 1.7-1.5 3.8-1.5 3.8-.9 2.1-3.1 3.4-5.5 2.9-1-.2-1.9-.8-2.5-1.6.4 1.7 1.7 3.2 3.5 3.6 2.4.5 4.6-.7 5.5-2.9 0 0 .9-2.1 1.5-3.7.3-.7 1.1-.8 1.6-.3.7.6 1.7 1 2.7 1 1.9 0 3.5-1.4 3.9-3.2.1-.5.5-.8 1-.8h4.2c.2 0 .4.1.6.2-.3-.4-.5-.9-.6-1.4zM43.5 30.8l-2.5-12c-.2-.9-.6-1.7-1.1-2.4 0 .1.1.3.1.4l2.5 12.1c.3 1.3.4 2.7.5 4.1 0 2.3-1.4 4.5-3.7 5-1.9.4-3.8-.3-4.9-1.8.2.5.4.9.4.9.9 2.1 3.1 3.4 5.5 2.9 2.3-.5 3.7-2.7 3.7-5 0-1.5-.2-2.8-.5-4.2z"
            class="color123247 svgShape"></path>
      <circle cx="30" cy="22" r="1" fill="#26d7fe" class="color70b7e5 svgShape"></circle>
      <circle cx="25" cy="19" r="1" fill="#d45985" class="color687a8a svgShape"></circle>
      <circle cx="22" cy="24" r="1" fill="#d45985" class="color687a8a svgShape"></circle>
      <circle cx="19" cy="19" r="1" fill="#d45985" class="color687a8a svgShape"></circle>
      <circle cx="36" cy="22" r="1" fill="#d85b53" class="colorf26a56 svgShape"></circle>
      <circle cx="33" cy="25" r="1" fill="#9ae45f" class="color89c763 svgShape"></circle>
      <circle cx="33" cy="19" r="1" fill="#a4ff5b" class="colorffcb5b svgShape"></circle>
      <path fill="#d45985"
            d="M14 21h-2v-2c0-.6-.4-1-1-1s-1 .4-1 1v2H8c-.6 0-1 .4-1 1s.4 1 1 1h2v2c0 .6.4 1 1 1s1-.4 1-1v-2h2c.6 0 1-.4 1-1s-.4-1-1-1z"
            class="color687a8a svgShape"></path>
      <circle cx="29" cy="30" r="3" fill="#d45985" class="color687a8a svgShape"></circle>
      <path fill="#7e5765"
            d="M30.6 27.4c.3.5.4 1 .4 1.6 0 1.7-1.3 3-3 3-.6 0-1.1-.2-1.6-.4.6.8 1.5 1.4 2.6 1.4 1.7 0 3-1.3 3-3 0-1.1-.6-2-1.4-2.6zM27.5 22c-.3 0-.5-.2-.5-.5 0-3 2.5-5.5 5.5-5.5.3 0 .5.2.5.5s-.2.5-.5.5C30 17 28 19 28 21.5c0 .3-.2.5-.5.5z"
            class="color576d7e svgShape"></path>
      <path fill="#471512"
            d="M33.5 28c-.3 0-.5-.2-.5-.5s.2-.5.5-.5c2.5 0 4.5-2 4.5-4.5 0-.3.2-.5.5-.5s.5.2.5.5c0 3-2.5 5.5-5.5 5.5z"
            class="color123247 svgShape"></path>
      <path fill="#7e5765"
            d="M5.5 22c-.3 0-.5-.2-.5-.5 0-3 2.5-5.5 5.5-5.5.3 0 .5.2.5.5s-.2.5-.5.5C8 17 6 19 6 21.5c0 .3-.2.5-.5.5z"
            class="color576d7e svgShape"></path>
      <path fill="#471512"
            d="M11.5 28c-.3 0-.5-.2-.5-.5s.2-.5.5-.5c2.5 0 4.5-2 4.5-4.5 0-.3.2-.5.5-.5s.5.2.5.5c0 3-2.5 5.5-5.5 5.5z"
            class="color123247 svgShape"></path>
      <circle cx="15" cy="30" r="3" fill="#d45985" class="color687a8a svgShape"></circle>
      <path fill="#7e5765"
            d="M16.6 27.4c.3.5.4 1 .4 1.6 0 1.7-1.3 3-3 3-.6 0-1.1-.2-1.6-.4.6.8 1.5 1.4 2.6 1.4 1.7 0 3-1.3 3-3 0-1.1-.6-2-1.4-2.6z"
            class="color576d7e svgShape"></path>
    </svg>
  </g>
</svg>