<svg id="SvgjsSvg1001" width="256" height="256" xmlns="http://www.w3.org/2000/svg" version="1.1">
  <defs id="SvgjsDefs1002"></defs>
  <g id="SvgjsG1008">
    <svg xmlns="http://www.w3.org/2000/svg" viewBox="0 0 64 64" width="256" height="256">
      <path fill="#fff"
            d="M47.12 6.25H16.88a12 12 0 0 0-12 12v17.67a12 12 0 0 0 12 12h7.48l6.09 9a2 2 0 0 0 3.3 0l6.09-9h7.28a12 12 0 0 0 12-12V18.25a12 12 0 0 0-12-12ZM33.51 40a1.42 1.42 0 0 1-.3.25 1.7 1.7 0 0 1-.35.19 1.58 1.58 0 0 1-.37.11 1.72 1.72 0 0 1-.39 0 2.2 2.2 0 0 1-.77-.15 1.63 1.63 0 0 1-.34-.19 1.42 1.42 0 0 1-.3-.25 2 2 0 0 1-.59-1.41 1.72 1.72 0 0 1 0-.39 1.58 1.58 0 0 1 .11-.37 1.48 1.48 0 0 1 .19-.35A2.16 2.16 0 0 1 31 37a2.27 2.27 0 0 1 .34-.19 2.38 2.38 0 0 1 .38-.11 2 2 0 0 1 1.8.55 1.81 1.81 0 0 1 .25.3 1.92 1.92 0 0 1 .18.35 2.29 2.29 0 0 1 .12.37 2.58 2.58 0 0 1 0 .39 2 2 0 0 1-.56 1.34ZM35 30.6l-.48.43a3.19 3.19 0 0 0-.41 1.6 2 2 0 0 1-2 2 2 2 0 0 1-2-2 6.65 6.65 0 0 1 1.58-4.41c.16-.16.37-.35.62-.58 1.24-1.11 3.8-3.43 3.8-6a3.76 3.76 0 0 0-4-4 3.76 3.76 0 0 0-4 4 2 2 0 0 1-4 0 7.75 7.75 0 0 1 8-8 7.75 7.75 0 0 1 8 8C40.1 26 36.65 29.1 35 30.6Z"
            class="color222 svgShape"></path>
    </svg>
  </g>
</svg>