<svg id="SvgjsSvg1001" width="256" height="256" xmlns="http://www.w3.org/2000/svg" version="1.1">
  <defs id="SvgjsDefs1002"></defs>
  <g id="SvgjsG1008">
    <svg xmlns="http://www.w3.org/2000/svg" viewBox="0 0 100 100" width="256" height="256">
      <circle cx="50" cy="50" r="49" fill="#50af95" class="color50af95 svgShape"></circle>
      <path fill="#ffffff"
            d="M56.1 40.925v-7.349h16.817V22.368H27.128v11.207h16.817v7.346C30.278 41.549 20 44.258 20 47.501s10.279 5.948 23.946 6.579v23.551H56.1V54.074c31.682-1.556 31.66-11.591 0-13.149z"
            class="colorfff svgShape"></path>
      <path fill="#50af95"
            d="M56.1 52.076c-8.19.694-33.327-.672-33.246-5.147 0-2.513 9.014-4.616 21.091-5.156v8.213c.622.217 11.992.211 12.155.003v-8.21c27.91 1.321 27.916 8.985 0 10.297z"
            class="color50af95 svgShape"></path>
    </svg>
  </g>
</svg>